<svg xmlns="http://www.w3.org/2000/svg" width="864" height="864" viewBox="0 0 864 864"><path d="M860.08 254.436c-2.092-45.84-9.372-77.147-20.02-104.542-11.007-28.32-25.73-52.338-49.673-76.28-23.943-23.943-47.962-38.67-76.282-49.675-27.394-10.648-58.7-17.927-104.54-20.02-45.937-2.096-60.6-2.59-177.565-2.59s-131.63.494-177.564 2.59c-45.84 2.093-77.147 9.372-104.542 20.02-28.32 11.005-52.338 25.73-76.28 49.674-23.943 23.942-38.67 47.96-49.675 76.28-10.648 27.394-17.927 58.7-20.02 104.542C1.824 300.37 1.33 315.036 1.33 432s.494 131.628 2.59 177.564c2.093 45.84 9.372 77.146 20.02 104.54 11.005 28.32 25.73 52.34 49.674 76.283 23.942 23.94 47.96 38.666 76.28 49.673 27.395 10.647 58.7 17.927 104.542 20.02 45.935 2.095 60.6 2.59 177.564 2.59s131.628-.495 177.564-2.59c45.84-2.093 77.146-9.372 104.54-20.02 28.32-11.007 52.34-25.73 76.283-49.673 23.94-23.943 38.666-47.962 49.673-76.282 10.647-27.395 17.928-58.7 20.02-104.54 2.095-45.938 2.59-60.602 2.59-177.565s-.495-131.63-2.59-177.564zm-77.52 351.59c-1.914 41.99-8.93 64.794-14.827 79.97-7.812 20.102-17.146 34.45-32.216 49.52s-29.42 24.404-49.52 32.217c-15.177 5.896-37.98 12.913-79.97 14.828-45.406 2.073-59.024 2.512-174.027 2.512s-128.622-.438-174.028-2.51c-41.988-1.916-64.794-8.933-79.97-14.83-20.102-7.81-34.448-17.145-49.518-32.215-15.07-15.07-24.405-29.42-32.218-49.52-5.897-15.177-12.912-37.98-14.83-79.97-2.07-45.412-2.51-59.033-2.51-174.027s.44-128.615 2.51-174.028c1.918-41.988 8.933-64.794 14.83-79.97 7.812-20.102 17.146-34.448 32.216-49.518s29.418-24.405 49.52-32.218c15.176-5.897 37.98-12.912 79.97-14.83 45.413-2.07 59.034-2.51 174.028-2.51s128.615.44 174.027 2.51c41.99 1.918 64.793 8.933 79.97 14.83 20.1 7.812 34.448 17.146 49.52 32.216 15.07 15.07 24.403 29.418 32.216 49.52 5.896 15.176 12.913 37.98 14.828 79.97 2.072 45.413 2.512 59.034 2.512 174.028s-.44 128.615-2.51 174.027z"/><path d="M432 210.844c-122.142 0-221.156 99.015-221.156 221.156 0 122.14 99.015 221.153 221.156 221.153 122.14 0 221.153-99.013 221.153-221.153 0-122.142-99.012-221.156-221.153-221.156zm0 364.713c-79.285 0-143.558-64.273-143.558-143.557 0-79.285 64.272-143.558 143.558-143.558 79.283 0 143.557 64.272 143.557 143.558 0 79.283-64.274 143.557-143.557 143.557z"/><circle cx="661.893" cy="202.107" r="51.68"/></svg>